<svg width="28" height="28" viewBox="0 0 28 28" fill="none" xmlns="http://www.w3.org/2000/svg">
<path d="M18.9528 10.9877C18.6353 11.1323 18.2864 11.2171 17.9438 11.2769C18.1073 11.2486 18.3462 10.9562 18.4436 10.8368C18.5913 10.6545 18.7108 10.4471 18.7799 10.2239C18.7893 10.205 18.7956 10.183 18.7799 10.1705C18.7579 10.161 18.7454 10.1673 18.7265 10.1736C18.343 10.3779 17.947 10.5288 17.5258 10.6325C17.4912 10.6419 17.4661 10.6325 17.4441 10.6105C17.4095 10.5696 17.3749 10.5351 17.3404 10.5036C17.1643 10.3528 16.9726 10.2333 16.7589 10.1485C16.4791 10.0353 16.1711 9.98501 15.8662 10.0039C15.5708 10.0227 15.2816 10.1076 15.0207 10.2428C14.7598 10.3811 14.5241 10.5696 14.3386 10.7991C14.1469 11.038 14.0055 11.3177 13.93 11.6163C13.8609 11.9023 13.864 12.1884 13.908 12.4775C13.9143 12.5247 13.908 12.531 13.8672 12.5247C12.2202 12.2795 10.8529 11.6886 9.74336 10.4251C9.69621 10.3716 9.66793 10.3716 9.63021 10.4282C9.14616 11.1543 9.3819 12.3235 9.98539 12.8987C10.0671 12.9741 10.1488 13.0527 10.24 13.1219C10.2086 13.1282 9.80308 13.0842 9.44476 12.8987C9.39762 12.8673 9.37247 12.8861 9.36933 12.9396C9.36619 13.0182 9.36933 13.0904 9.3819 13.1753C9.4762 13.914 9.98538 14.596 10.6863 14.86C10.768 14.8946 10.8623 14.926 10.9503 14.9418C10.79 14.9763 10.6266 15.0015 10.1708 14.9669C10.1143 14.9575 10.0922 14.9858 10.1143 15.0392C10.4569 15.9759 11.1986 16.2525 11.755 16.4128C11.8304 16.4253 11.9027 16.4253 11.9781 16.4442C11.975 16.4505 11.9687 16.4505 11.9656 16.4568C11.7801 16.7365 11.1421 16.9471 10.8466 17.0508C10.306 17.2394 9.71822 17.3243 9.14616 17.2677C9.05501 17.2551 9.03616 17.2551 9.01101 17.2677C8.98587 17.2834 9.00786 17.3054 9.03615 17.3274C9.15245 17.4029 9.26875 17.472 9.39133 17.538C9.75279 17.7297 10.1331 17.8838 10.5291 17.9938C12.5722 18.5564 14.873 18.1446 16.4068 16.6202C17.6107 15.4227 18.0318 13.7725 18.0318 12.1224C18.0318 12.0563 18.1073 12.0218 18.1544 11.9872C18.4688 11.7515 18.7171 11.4686 18.9497 11.1543C19.0031 11.0851 18.9999 11.0223 18.9999 10.994V10.9845C18.9999 10.9594 19.0031 10.9657 18.9622 10.9845L18.9528 10.9877Z" fill="white"/>
<path fill-rule="evenodd" clip-rule="evenodd" d="M12.2986 18.2074C12.2986 18.1917 12.4747 18.2074 12.2986 18.2074C12.2986 18.198 12.3206 18.2074 12.2986 18.2074Z" fill="white"/>
<path fill-rule="evenodd" clip-rule="evenodd" d="M15.8346 10.01C15.8346 10.01 15.8095 10.0194 15.7938 10.01H15.8346Z" fill="white"/>
<rect x="0.5" y="0.5" width="27" height="27" rx="13.5" stroke="white"/>
</svg>
