<svg width="28" height="28" viewBox="0 0 28 28" fill="none" xmlns="http://www.w3.org/2000/svg">
<path fill-rule="evenodd" clip-rule="evenodd" d="M12.1053 14.0397V18.8747C12.1053 18.945 12.1645 19 12.2401 19H14.1711C14.2467 19 14.3059 18.945 14.3059 18.8747V13.9603H15.7072C15.7763 13.9603 15.8355 13.9114 15.8421 13.8441L15.977 12.3649C15.9836 12.2916 15.9211 12.2274 15.8421 12.2274H14.3059V11.176C14.3059 10.9285 14.5197 10.7298 14.7862 10.7298H15.8651C15.9408 10.7298 16 10.6748 16 10.6045V9.1253C16 9.05501 15.9408 9 15.8651 9H14.0395C12.9704 9 12.102 9.80685 12.102 10.8001V12.2274H11.1349C11.0592 12.2274 11 12.2824 11 12.3527V13.8319C11 13.9022 11.0592 13.9572 11.1349 13.9572H12.102V14.0367L12.1053 14.0397Z" fill="white"/>
<rect x="0.5" y="0.5" width="27" height="27" rx="13.5" stroke="white"/>
</svg>
