<svg width="28" height="28" viewBox="0 0 28 28" fill="none" xmlns="http://www.w3.org/2000/svg">
<path d="M19 12.177C19 10.9752 18.0249 10 16.823 10H11.177C9.97515 10 9 10.9752 9 12.177V14.823C9 16.0248 9.97515 17 11.177 17H16.823C18.0249 17 19 16.0248 19 14.823V12.177ZM15.4379 13.6335L13.1863 14.8696C13.087 14.9224 13 14.8509 13 14.7391V12.205C13 12.0932 13.0901 12.0217 13.1894 12.0776L15.4565 13.3789C15.5559 13.4348 15.5404 13.5807 15.4379 13.6366V13.6335Z" fill="white"/>
<rect x="0.5" y="0.5" width="27" height="27" rx="13.5" stroke="white"/>
</svg>
